# xmcd CD database file
# Copyright (C) 1993-1996 Ti Kan
#
# Track frame offsets:
#	182
#	14612
#	29730
#	44552
#	58672
#	71887
#	85830
#	97047
#	111692
#	122442
#
# Disc length: 1924 seconds
#
# Revision: 1
# Processed by: cddbd v1.4b41PL1 Copyright (c) Steve Scherf et al.
# Submitted via: CDValet v3.01 - Copyright (c) 1997 Greg Leichner
#
DISCID=9607820a
DTITLE=Celinda Pink - Victimized
DYEAR=1900
DGENRE=
TTITLE0=Victimized
TTITLE1=You Ain't Leavin' Me Without You
TTITLE2=Love You Till The Cows Come Home
TTITLE3=How Do You Like Me Now
TTITLE4=Taking My Freedom
TTITLE5=Pack Your Lies And Go
TTITLE6=I Don't Need No Lover Boy
TTITLE7=Love Her Right Off Of Your Mind
TTITLE8=Please, Please
TTITLE9=I've Earned The Right To Sing The Blues
EXTD=
EXTT0=
EXTT1=
EXTT2=
EXTT3=
EXTT4=
EXTT5=
EXTT6=
EXTT7=
EXTT8=
EXTT9=
PLAYORDER=
